<svg width="1438" height="1649" viewBox="0 0 1438 1649" fill="none" xmlns="http://www.w3.org/2000/svg">
<g clip-path="url(#clip0_10_61)">
<circle cx="719" cy="612" r="512" fill="url(#paint0_radial_10_61)"/>
<circle cx="719" cy="612" r="462" fill="url(#paint1_linear_10_61)"/>
<g filter="url(#filter0_d_10_61)">
<path d="M702.798 603.351C702.232 616.805 713.292 627.865 726.746 627.299L1010.38 615.351C1034.16 614.35 1043.61 645.705 1023.24 658.016L215.596 1146.08C195.037 1158.5 171.592 1135.06 184.016 1114.5L672.081 306.854C684.391 286.483 715.747 295.937 714.745 319.718L702.798 603.351Z" fill="url(#paint2_linear_10_61)"/>
</g>
</g>
<path d="M127.273 1293V1201.74L204.329 1201.48C214.483 1201.48 221.993 1203.61 226.857 1207.88C231.806 1212.06 234.281 1218.38 234.281 1226.82C234.281 1235.27 231.465 1241.46 225.833 1245.38C229.587 1247.43 232.361 1250.16 234.153 1253.58C235.945 1256.9 236.841 1261.21 236.841 1266.5C236.841 1275.12 234.366 1281.69 229.417 1286.22C224.553 1290.65 217.043 1292.87 206.889 1292.87L127.273 1293ZM201.897 1217.86H147.753V1238.34H201.897C209.662 1238.34 213.545 1234.85 213.545 1227.85C213.545 1221.19 209.662 1217.86 201.897 1217.86ZM204.457 1254.73H147.753V1276.49H204.457C212.222 1276.49 216.105 1272.82 216.105 1265.48C216.105 1258.31 212.222 1254.73 204.457 1254.73ZM250.898 1293V1201.48H271.378V1276.36H338.322V1293H250.898ZM388.14 1293.64C378.838 1293.64 371.5 1292.45 366.124 1290.06C360.748 1287.58 356.908 1283.87 354.604 1278.92C352.3 1273.97 351.148 1267.74 351.148 1260.23V1201.48H371.628V1260.23C371.628 1266.72 373.121 1271.15 376.108 1273.54C379.18 1275.85 384.342 1277 391.596 1277H416.3C423.553 1277 428.673 1275.85 431.66 1273.54C434.732 1271.15 436.268 1266.72 436.268 1260.23V1201.48H456.748V1260.23C456.748 1267.74 455.596 1273.97 453.292 1278.92C450.988 1283.87 447.148 1287.58 441.772 1290.06C436.396 1292.45 429.057 1293.64 419.756 1293.64H388.14ZM474.648 1293V1201.48H575V1218.12H495.128V1238.34H567.576V1254.98H495.128V1276.36H575V1293H474.648ZM585.823 1247.82V1201.48H698.463V1247.82H677.727V1218.12H649.823V1293H629.343V1218.12H606.559V1247.82H585.823ZM759.356 1293.64C743.057 1293.64 730.428 1289.76 721.468 1281.99C712.508 1274.14 708.028 1262.54 708.028 1247.18C708.028 1231.9 712.508 1220.38 721.468 1212.62C730.428 1204.77 743.356 1200.84 760.252 1200.84H783.292C800.188 1200.84 813.116 1204.77 822.076 1212.62C831.036 1220.38 835.516 1231.9 835.516 1247.18C835.516 1262.54 831.036 1274.14 822.076 1281.99C813.116 1289.76 800.401 1293.64 783.932 1293.64H759.356ZM761.66 1217.48C752.188 1217.48 744.806 1219.19 739.516 1222.6C734.225 1226.01 730.897 1231.43 729.532 1238.86H814.012C812.646 1231.43 809.318 1226.01 804.028 1222.6C798.737 1219.19 791.356 1217.48 781.884 1217.48H761.66ZM762.044 1277H781.884C791.441 1277 798.822 1275.29 804.028 1271.88C809.318 1268.47 812.646 1263.01 814.012 1255.5H729.532C730.897 1263.01 734.225 1268.47 739.516 1271.88C744.806 1275.29 752.316 1277 762.044 1277ZM848.273 1293V1201.48H869.009L933.777 1267.27V1201.48H954.257V1293H933.521L868.753 1227.08V1293H848.273ZM1016.69 1293.64C1001.08 1293.64 988.873 1289.76 980.083 1281.99C971.38 1274.14 967.028 1262.54 967.028 1247.18C967.028 1231.9 971.465 1220.38 980.34 1212.62C989.3 1204.77 1002.27 1200.84 1019.25 1200.84H1067.89V1217.48H1020.66C1009.48 1217.48 1001.2 1219.83 995.828 1224.52C990.537 1229.21 987.892 1236.77 987.892 1247.18C987.892 1257.07 990.238 1264.41 994.932 1269.19C999.625 1273.89 1006.49 1276.45 1015.54 1276.87V1241.29H1072.88V1293.64H1016.69ZM1034.74 1277H1052.4V1257.93H1034.74V1277ZM1127.76 1293.64C1118.46 1293.64 1111.12 1292.45 1105.75 1290.06C1100.37 1287.58 1096.53 1283.87 1094.23 1278.92C1091.92 1273.97 1090.77 1267.74 1090.77 1260.23V1201.48H1111.25V1260.23C1111.25 1266.72 1112.75 1271.15 1115.73 1273.54C1118.8 1275.85 1123.97 1277 1131.22 1277H1155.92C1163.18 1277 1168.3 1275.85 1171.28 1273.54C1174.36 1271.15 1175.89 1266.72 1175.89 1260.23V1201.48H1196.37V1260.23C1196.37 1267.74 1195.22 1273.97 1192.92 1278.92C1190.61 1283.87 1186.77 1287.58 1181.4 1290.06C1176.02 1292.45 1168.68 1293.64 1159.38 1293.64H1127.76ZM1214.27 1293V1201.48H1314.62V1218.12H1234.75V1238.34H1307.2V1254.98H1234.75V1276.36H1314.62V1293H1214.27ZM121.104 1529V1314.5H161.304L260.604 1384.1H262.104L361.404 1314.5H401.604V1529H353.604V1374.5L285.504 1420.1V1529H237.504V1420.1L169.104 1374.5V1529H121.104ZM443.662 1529V1314.5H678.862V1353.5H491.662V1400.9H661.462V1439.9H491.662V1490H678.862V1529H443.662ZM711.729 1529V1314.5H747.129L843.129 1314.2C881.929 1314.2 912.029 1323.3 933.429 1341.5C954.829 1359.7 965.529 1386.4 965.529 1421.6C965.529 1456.8 954.829 1483.5 933.429 1501.7C912.029 1519.9 881.929 1529 843.129 1529H711.729ZM839.829 1353.2H759.729V1490H839.829C865.029 1490 884.129 1484.5 897.129 1473.5C910.129 1462.5 916.629 1445.2 916.629 1421.6C916.629 1397.8 910.129 1380.5 897.129 1369.7C884.129 1358.7 865.029 1353.2 839.829 1353.2ZM995.615 1529V1314.5H1043.62V1529H995.615ZM1067.56 1529L1164.16 1314.5H1238.26L1334.86 1529H1282.66L1262.26 1483.7H1140.16L1119.76 1529H1067.56ZM1157.56 1444.7H1244.86L1203.16 1352H1199.26L1157.56 1444.7Z" fill="white"/>
<defs>
<filter id="filter0_d_10_61" x="80.5521" y="195.701" width="1053.84" height="1053.84" filterUnits="userSpaceOnUse" color-interpolation-filters="sRGB">
<feFlood flood-opacity="0" result="BackgroundImageFix"/>
<feColorMatrix in="SourceAlpha" type="matrix" values="0 0 0 0 0 0 0 0 0 0 0 0 0 0 0 0 0 0 127 0" result="hardAlpha"/>
<feOffset/>
<feGaussianBlur stdDeviation="50"/>
<feComposite in2="hardAlpha" operator="out"/>
<feColorMatrix type="matrix" values="0 0 0 0 0.438862 0 0 0 0 0.283654 0 0 0 0 1 0 0 0 1 0"/>
<feBlend mode="normal" in2="BackgroundImageFix" result="effect1_dropShadow_10_61"/>
<feBlend mode="normal" in="SourceGraphic" in2="effect1_dropShadow_10_61" result="shape"/>
</filter>
<radialGradient id="paint0_radial_10_61" cx="0" cy="0" r="1" gradientUnits="userSpaceOnUse" gradientTransform="translate(719 612) rotate(90) scale(512)">
<stop offset="0.855769" stop-color="#724BFF"/>
<stop offset="1" stop-color="white"/>
</radialGradient>
<linearGradient id="paint1_linear_10_61" x1="719" y1="150" x2="719" y2="1074" gradientUnits="userSpaceOnUse">
<stop stop-color="#2F2F2F"/>
<stop offset="1" stop-color="#7080E6"/>
</linearGradient>
<linearGradient id="paint2_linear_10_61" x1="607.474" y1="295.701" x2="607.474" y2="1149.54" gradientUnits="userSpaceOnUse">
<stop stop-color="#7048FF"/>
<stop offset="1" stop-color="#8E9DFF"/>
</linearGradient>
<clipPath id="clip0_10_61">
<rect x="207" y="100" width="1024" height="1024" rx="512" fill="white"/>
</clipPath>
</defs>
</svg>
