<svg width="1224" height="1224" viewBox="0 0 1224 1224" fill="none" xmlns="http://www.w3.org/2000/svg">
<g clip-path="url(#clip0_10_62)">
<circle cx="612" cy="612" r="512" fill="url(#paint0_radial_10_62)"/>
<circle cx="612" cy="612" r="462" fill="url(#paint1_linear_10_62)"/>
<g filter="url(#filter0_d_10_62)">
<path d="M595.798 603.351C595.232 616.805 606.292 627.865 619.746 627.299L903.379 615.351C927.16 614.35 936.613 645.705 916.242 658.016L108.596 1146.08C88.037 1158.5 64.5918 1135.06 77.016 1114.5L565.081 306.854C577.391 286.483 608.747 295.937 607.745 319.718L595.798 603.351Z" fill="url(#paint2_linear_10_62)"/>
</g>
</g>
<defs>
<filter id="filter0_d_10_62" x="-26.4479" y="195.701" width="1053.84" height="1053.84" filterUnits="userSpaceOnUse" color-interpolation-filters="sRGB">
<feFlood flood-opacity="0" result="BackgroundImageFix"/>
<feColorMatrix in="SourceAlpha" type="matrix" values="0 0 0 0 0 0 0 0 0 0 0 0 0 0 0 0 0 0 127 0" result="hardAlpha"/>
<feOffset/>
<feGaussianBlur stdDeviation="50"/>
<feComposite in2="hardAlpha" operator="out"/>
<feColorMatrix type="matrix" values="0 0 0 0 0.438862 0 0 0 0 0.283654 0 0 0 0 1 0 0 0 1 0"/>
<feBlend mode="normal" in2="BackgroundImageFix" result="effect1_dropShadow_10_62"/>
<feBlend mode="normal" in="SourceGraphic" in2="effect1_dropShadow_10_62" result="shape"/>
</filter>
<radialGradient id="paint0_radial_10_62" cx="0" cy="0" r="1" gradientUnits="userSpaceOnUse" gradientTransform="translate(612 612) rotate(90) scale(512)">
<stop offset="0.855769" stop-color="#724BFF"/>
<stop offset="1" stop-color="white"/>
</radialGradient>
<linearGradient id="paint1_linear_10_62" x1="612" y1="150" x2="612" y2="1074" gradientUnits="userSpaceOnUse">
<stop stop-color="#2F2F2F"/>
<stop offset="1" stop-color="#7080E6"/>
</linearGradient>
<linearGradient id="paint2_linear_10_62" x1="500.474" y1="295.701" x2="500.474" y2="1149.54" gradientUnits="userSpaceOnUse">
<stop stop-color="#7048FF"/>
<stop offset="1" stop-color="#8E9DFF"/>
</linearGradient>
<clipPath id="clip0_10_62">
<rect x="100" y="100" width="1024" height="1024" rx="512" fill="white"/>
</clipPath>
</defs>
</svg>
