<svg width="2512" height="1224" viewBox="0 0 2512 1224" fill="none" xmlns="http://www.w3.org/2000/svg">
<g clip-path="url(#clip0_10_78)">
<circle cx="612" cy="612" r="512" fill="url(#paint0_radial_10_78)"/>
<circle cx="612" cy="612" r="462" fill="url(#paint1_linear_10_78)"/>
<g filter="url(#filter0_d_10_78)">
<path d="M595.798 603.351C595.231 616.805 606.292 627.865 619.746 627.299L903.379 615.351C927.159 614.35 936.613 645.705 916.242 658.016L108.596 1146.08C88.037 1158.5 64.5917 1135.06 77.0159 1114.5L565.081 306.854C577.391 286.483 608.747 295.937 607.745 319.718L595.798 603.351Z" fill="url(#paint2_linear_10_78)"/>
</g>
</g>
<g filter="url(#filter1_f_10_78)">
<path d="M1201.27 543.5V452.236L1278.33 451.98C1288.48 451.98 1295.99 454.113 1300.86 458.38C1305.81 462.561 1308.28 468.876 1308.28 477.324C1308.28 485.772 1305.46 491.959 1299.83 495.884C1303.59 497.932 1306.36 500.663 1308.15 504.076C1309.94 507.404 1310.84 511.713 1310.84 517.004C1310.84 525.623 1308.37 532.193 1303.42 536.716C1298.55 541.153 1291.04 543.372 1280.89 543.372L1201.27 543.5ZM1275.9 468.364H1221.75V488.844H1275.9C1283.66 488.844 1287.54 485.345 1287.54 478.348C1287.54 471.692 1283.66 468.364 1275.9 468.364ZM1278.46 505.228H1221.75V526.988H1278.46C1286.22 526.988 1290.1 523.319 1290.1 515.98C1290.1 508.812 1286.22 505.228 1278.46 505.228ZM1324.9 543.5V451.98H1345.38V526.86H1412.32V543.5H1324.9ZM1462.14 544.14C1452.84 544.14 1445.5 542.945 1440.12 540.556C1434.75 538.081 1430.91 534.369 1428.6 529.42C1426.3 524.471 1425.15 518.241 1425.15 510.732V451.98H1445.63V510.732C1445.63 517.217 1447.12 521.655 1450.11 524.044C1453.18 526.348 1458.34 527.5 1465.6 527.5H1490.3C1497.55 527.5 1502.67 526.348 1505.66 524.044C1508.73 521.655 1510.27 517.217 1510.27 510.732V451.98H1530.75V510.732C1530.75 518.241 1529.6 524.471 1527.29 529.42C1524.99 534.369 1521.15 538.081 1515.77 540.556C1510.4 542.945 1503.06 544.14 1493.76 544.14H1462.14ZM1548.65 543.5V451.98H1649V468.62H1569.13V488.844H1641.58V505.484H1569.13V526.86H1649V543.5H1548.65ZM1659.82 498.316V451.98H1772.46V498.316H1751.73V468.62H1723.82V543.5H1703.34V468.62H1680.56V498.316H1659.82ZM1833.36 544.14C1817.06 544.14 1804.43 540.257 1795.47 532.492C1786.51 524.641 1782.03 513.036 1782.03 497.676C1782.03 482.401 1786.51 470.881 1795.47 463.116C1804.43 455.265 1817.36 451.34 1834.25 451.34H1857.29C1874.19 451.34 1887.12 455.265 1896.08 463.116C1905.04 470.881 1909.52 482.401 1909.52 497.676C1909.52 513.036 1905.04 524.641 1896.08 532.492C1887.12 540.257 1874.4 544.14 1857.93 544.14H1833.36ZM1835.66 467.98C1826.19 467.98 1818.81 469.687 1813.52 473.1C1808.22 476.513 1804.9 481.932 1803.53 489.356H1888.01C1886.65 481.932 1883.32 476.513 1878.03 473.1C1872.74 469.687 1865.36 467.98 1855.88 467.98H1835.66ZM1836.04 527.5H1855.88C1865.44 527.5 1872.82 525.793 1878.03 522.38C1883.32 518.967 1886.65 513.505 1888.01 505.996H1803.53C1804.9 513.505 1808.22 518.967 1813.52 522.38C1818.81 525.793 1826.32 527.5 1836.04 527.5ZM1922.27 543.5V451.98H1943.01L2007.78 517.772V451.98H2028.26V543.5H2007.52L1942.75 477.58V543.5H1922.27ZM2090.69 544.14C2075.08 544.14 2062.87 540.257 2054.08 532.492C2045.38 524.641 2041.03 513.036 2041.03 497.676C2041.03 482.401 2045.46 470.881 2054.34 463.116C2063.3 455.265 2076.27 451.34 2093.25 451.34H2141.89V467.98H2094.66C2083.48 467.98 2075.2 470.327 2069.83 475.02C2064.54 479.713 2061.89 487.265 2061.89 497.676C2061.89 507.575 2064.24 514.913 2068.93 519.692C2073.62 524.385 2080.49 526.945 2089.54 527.372V491.788H2146.88V544.14H2090.69ZM2108.74 527.5H2126.4V508.428H2108.74V527.5ZM2201.76 544.14C2192.46 544.14 2185.12 542.945 2179.75 540.556C2174.37 538.081 2170.53 534.369 2168.23 529.42C2165.92 524.471 2164.77 518.241 2164.77 510.732V451.98H2185.25V510.732C2185.25 517.217 2186.75 521.655 2189.73 524.044C2192.8 526.348 2197.97 527.5 2205.22 527.5H2229.92C2237.18 527.5 2242.3 526.348 2245.28 524.044C2248.36 521.655 2249.89 517.217 2249.89 510.732V451.98H2270.37V510.732C2270.37 518.241 2269.22 524.471 2266.92 529.42C2264.61 534.369 2260.77 538.081 2255.4 540.556C2250.02 542.945 2242.68 544.14 2233.38 544.14H2201.76ZM2288.27 543.5V451.98H2388.62V468.62H2308.75V488.844H2381.2V505.484H2308.75V526.86H2388.62V543.5H2288.27ZM1195.1 779.5V565H1235.3L1334.6 634.6H1336.1L1435.4 565H1475.6V779.5H1427.6V625L1359.5 670.6V779.5H1311.5V670.6L1243.1 625V779.5H1195.1ZM1517.66 779.5V565H1752.86V604H1565.66V651.4H1735.46V690.4H1565.66V740.5H1752.86V779.5H1517.66ZM1785.73 779.5V565H1821.13L1917.13 564.7C1955.93 564.7 1986.03 573.8 2007.43 592C2028.83 610.2 2039.53 636.9 2039.53 672.1C2039.53 707.3 2028.83 734 2007.43 752.2C1986.03 770.4 1955.93 779.5 1917.13 779.5H1785.73ZM1913.83 603.7H1833.73V740.5H1913.83C1939.03 740.5 1958.13 735 1971.13 724C1984.13 713 1990.63 695.7 1990.63 672.1C1990.63 648.3 1984.13 631 1971.13 620.2C1958.13 609.2 1939.03 603.7 1913.83 603.7ZM2069.62 779.5V565H2117.62V779.5H2069.62ZM2141.56 779.5L2238.16 565H2312.26L2408.86 779.5H2356.66L2336.26 734.2H2214.16L2193.76 779.5H2141.56ZM2231.56 695.2H2318.86L2277.16 602.5H2273.26L2231.56 695.2Z" fill="white"/>
</g>
<defs>
<filter id="filter0_d_10_78" x="-26.448" y="195.701" width="1053.84" height="1053.84" filterUnits="userSpaceOnUse" color-interpolation-filters="sRGB">
<feFlood flood-opacity="0" result="BackgroundImageFix"/>
<feColorMatrix in="SourceAlpha" type="matrix" values="0 0 0 0 0 0 0 0 0 0 0 0 0 0 0 0 0 0 127 0" result="hardAlpha"/>
<feOffset/>
<feGaussianBlur stdDeviation="50"/>
<feComposite in2="hardAlpha" operator="out"/>
<feColorMatrix type="matrix" values="0 0 0 0 0.438862 0 0 0 0 0.283654 0 0 0 0 1 0 0 0 1 0"/>
<feBlend mode="normal" in2="BackgroundImageFix" result="effect1_dropShadow_10_78"/>
<feBlend mode="normal" in="SourceGraphic" in2="effect1_dropShadow_10_78" result="shape"/>
</filter>
<filter id="filter1_f_10_78" x="1164.4" y="420.64" width="1275.15" height="389.56" filterUnits="userSpaceOnUse" color-interpolation-filters="sRGB">
<feFlood flood-opacity="0" result="BackgroundImageFix"/>
<feBlend mode="normal" in="SourceGraphic" in2="BackgroundImageFix" result="shape"/>
<feGaussianBlur stdDeviation="15.35" result="effect1_foregroundBlur_10_78"/>
</filter>
<radialGradient id="paint0_radial_10_78" cx="0" cy="0" r="1" gradientUnits="userSpaceOnUse" gradientTransform="translate(612 612) rotate(90) scale(512)">
<stop offset="0.855769" stop-color="#724BFF"/>
<stop offset="1" stop-color="white"/>
</radialGradient>
<linearGradient id="paint1_linear_10_78" x1="612" y1="150" x2="612" y2="1074" gradientUnits="userSpaceOnUse">
<stop stop-color="#2F2F2F"/>
<stop offset="1" stop-color="#7080E6"/>
</linearGradient>
<linearGradient id="paint2_linear_10_78" x1="500.474" y1="295.701" x2="500.474" y2="1149.54" gradientUnits="userSpaceOnUse">
<stop stop-color="#7048FF"/>
<stop offset="1" stop-color="#8E9DFF"/>
</linearGradient>
<clipPath id="clip0_10_78">
<rect x="100" y="100" width="1024" height="1024" rx="512" fill="white"/>
</clipPath>
</defs>
</svg>
